<svg width="48" height="48" viewBox="0 0 48 48" fill="none" xmlns="http://www.w3.org/2000/svg">
<path d="M42.5 26V17C42.5 14.3478 41.4464 11.8043 39.5711 9.92893C37.6957 8.05357 35.1522 7 32.5 7H15.5C12.8478 7 10.3043 8.05357 8.42893 9.92893C6.55357 11.8043 5.5 14.3478 5.5 17V31C5.5 32.3132 5.75866 33.6136 6.2612 34.8268C6.76375 36.0401 7.50035 37.1425 8.42893 38.0711C10.3043 39.9464 12.8478 41 15.5 41H28.02" stroke="#A303A0" stroke-width="1.5" stroke-linecap="round" stroke-linejoin="round"/>
<path d="M6.02 34L11.5 27.6C12.2197 26.8852 13.1642 26.4411 14.1738 26.3427C15.1833 26.2442 16.1958 26.4977 17.04 27.06C17.8842 27.6224 18.8967 27.8758 19.9062 27.7774C20.9158 27.679 21.8603 27.2348 22.58 26.52L27.24 21.86C28.579 20.5165 30.3518 19.6924 32.2421 19.5349C34.1324 19.3774 36.0171 19.8966 37.56 21L42.5 24.82M16.02 20.34C16.456 20.3374 16.8872 20.2489 17.289 20.0796C17.6908 19.9104 18.0553 19.6636 18.3617 19.3535C18.6682 19.0433 18.9105 18.6758 19.0749 18.272C19.2394 17.8682 19.3226 17.436 19.32 17C19.3174 16.564 19.2289 16.1328 19.0596 15.731C18.8904 15.3292 18.6436 14.9647 18.3335 14.6583C18.0233 14.3518 17.6558 14.1095 17.252 13.9451C16.8482 13.7807 16.416 13.6974 15.98 13.7C15.0995 13.7053 14.2571 14.0602 13.6383 14.6866C13.0194 15.3129 12.6747 16.1595 12.68 17.04C12.6853 17.9205 13.0402 18.7629 13.6666 19.3817C14.2929 20.0006 15.1395 20.3453 16.02 20.34Z" stroke="#A303A0" stroke-width="1.5" stroke-linecap="round" stroke-linejoin="round"/>
<path d="M37.414 30V40" stroke="#A303A0" stroke-width="1.5" stroke-miterlimit="10" stroke-linecap="round"/>
<path d="M42 34.21L38.066 30.276C37.9805 30.1901 37.8789 30.122 37.767 30.0755C37.6551 30.029 37.5352 30.0051 37.414 30.0051C37.2928 30.0051 37.1729 30.029 37.061 30.0755C36.9491 30.122 36.8475 30.1901 36.762 30.276L32.828 34.21" stroke="#A303A0" stroke-width="1.5" stroke-linecap="round" stroke-linejoin="round"/>
</svg>
